<?xml version="1.0" encoding="utf-8"?>
<!-- Svg Vector Icons : http://www.onlinewebfonts.com/icon -->
<!DOCTYPE svg PUBLIC "-//W3C//DTD SVG 1.1//EN" "http://www.w3.org/Graphics/SVG/1.1/DTD/svg11.dtd">
<svg version="1.1" xmlns="http://www.w3.org/2000/svg" xmlns:xlink="http://www.w3.org/1999/xlink" x="0px" y="0px" viewBox="0 0 1000 1000" enable-background="new 0 0 1000 1000" xml:space="preserve">
<metadata> Svg Vector Icons : http://www.onlinewebfonts.com/icon </metadata>
<g><path d="M958,406.6L570.2,45.2c-19.6-22.3-47.9-35.1-77.9-35.2c-29.6,0-57.8,12.7-76.6,33.8L42.3,406.4c-18.6,19-24,46.8-13.7,71.3c10.3,24.6,34.2,40,60.9,40h33.6v368.7c0,57.2,45.7,103.6,102.9,103.6h160.3c20.8,0,39.3-16.8,39.3-37.6V707.2c0-10.4,6.9-19.8,17.3-19.8h113.2c10.4,0,18.4,9.3,18.4,19.8v245.2c0,20.8,17.4,37.6,38.2,37.6h160.3c57.2,0,104-46.4,104-103.6V517.7h33.5c26.6,0,50.4-15.4,60.8-39.8C981.7,453.4,976.4,425.7,958,406.6L958,406.6z M919.2,455.8c-1.5,3.5-4.9,5.3-8.7,5.3h-90v425.2c0,26-21.4,48.3-47.4,48.3H612.6V688.3c0-20.8-16.8-37.8-37.6-37.8H424.1c-20.8,0-39,17-39,37.8v246.3H226c-26,0-47.6-22.3-47.6-48.3V461.1h-89c-3.8,0-7.2-1.8-8.7-5.3c-1.5-3.5-0.7-7.3,2-10L457.1,82.3c9-10,21.8-15.8,35.4-15.8c13.5,0,26.4,5.9,36.2,17l388.6,362.2C919.9,448.5,920.7,452.3,919.2,455.8L919.2,455.8z"/></g>
</svg>